<svg width="39" height="24" viewBox="0 0 39 24" fill="none" xmlns="http://www.w3.org/2000/svg">
<g clip-path="url(#clip0_1159_151)">


<path d="M153.784 0C144.142 0 144.142 9.88235 134.567 9.88235C124.992 9.88235 124.925 0 115.35 0C105.776 0 105.709 9.88235 96.1339 9.88235C86.4921 9.88235 86.4922 0 76.8505 0C67.2087 0 67.2087 9.88235 57.6339 9.88235C47.9922 9.88235 47.9921 0 38.4174 0C28.7756 0 28.7756 9.88235 19.2009 9.88235C9.62608 9.88235 9.35823 0 -0.216553 0C-9.85829 0 -9.85826 9.88235 -19.433 9.88235C-29.0078 9.88235 -29.1418 0 -38.7166 0C-48.3583 0 -48.3583 9.88235 -57.933 9.88235C-67.5748 9.88235 -67.5748 0 -77.2166 0C-86.8583 0 -86.8583 9.88235 -96.4331 9.88235C-106.075 9.88235 -106.075 0 -115.65 0C-125.224 0 -125.358 9.88235 -135 9.88235C-144.642 9.88235 -144.642 0 -154.217 0C-163.858 0 -163.858 9.88235 -173.433 9.88235C-183.075 9.88235 -183.075 0 -192.717 0C-202.358 0 -202.358 9.88235 -211.933 9.88235C-221.575 9.88235 -221.575 0 -231.15 0C-240.791 0 -240.791 9.88235 -250.366 9.88235C-260.008 9.88235 -260.008 0 -269.583 0C-279.224 0 -279.224 9.88235 -288.866 9.88235C-298.508 9.88235 -298.508 0 -308.15 0C-317.791 0 -317.791 9.88235 -327.433 9.88235C-337.075 9.88235 -337.075 0 -346.717 0C-356.358 0 -356.358 9.88235 -366 9.88235C-375.642 9.88235 -375.642 0 -385.283 0C-394.925 0 -394.925 9.88235 -404.567 9.88235C-414.209 9.88235 -414.209 0 -423.85 0C-433.492 0 -433.492 9.88235 -443.067 9.88235C-452.709 9.88235 -452.709 0 -462.35 0C-471.992 0 -471.992 9.88235 -481.634 9.88235C-491.276 9.88235 -491.276 0 -500.917 0C-510.559 0 -510.559 9.88235 -520.201 9.88235C-529.843 9.88235 -529.843 0 -539.484 0C-548.858 0 -548.858 9.88235 -558.5 9.88235C-568.142 9.88235 -568.142 0 -577.717 0C-587.291 0 -587.358 9.88235 -597 9.88235V24H173V9.88235C163.358 9.88235 163.358 0 153.784 0Z" fill="white"/>
</g>
<defs>
<clipPath id="clip0_1159_151">
<rect width="768" height="3710" fill="black" transform="translate(-596 -822)"/>
</clipPath>
</defs>
</svg>
