<svg width="16" height="6" viewBox="0 0 16 6" fill="none" xmlns="http://www.w3.org/2000/svg">
<g clip-path="url(#clip0_44_95)">
<rect x="-8" y="-1388" width="320" height="3932" fill="white"/>
<path d="M312 6C309.496 6 308.188 4.8 307.13 3.83478C306.184 2.97391 305.489 2.34783 304.014 2.34783C302.511 2.34783 301.843 2.97391 300.897 3.83478C299.84 4.8 298.532 6 296.028 6C293.523 6 292.216 4.8 291.158 3.83478C290.212 2.97391 289.517 2.34783 288.042 2.34783C286.567 2.34783 285.871 2.97391 284.925 3.83478C283.868 4.8 282.56 6 280.056 6C277.551 6 276.243 4.8 275.186 3.83478C274.24 2.97391 273.544 2.34783 272.07 2.34783C270.567 2.34783 269.899 2.97391 268.953 3.83478C267.896 4.8 266.588 6 264.083 6C261.579 6 260.271 4.8 259.214 3.83478C258.268 2.97391 257.572 2.34783 256.097 2.34783C254.595 2.34783 253.927 2.97391 252.981 3.83478C251.812 4.8 250.504 6 248 6C245.496 6 244.188 4.8 243.13 3.83478C242.184 2.97391 241.489 2.34783 240.014 2.34783C238.511 2.34783 237.843 2.97391 236.897 3.83478C235.84 4.8 234.532 6 232.028 6C229.523 6 228.216 4.8 227.158 3.83478C226.212 2.97391 225.517 2.34783 224.042 2.34783C222.539 2.34783 221.871 2.97391 220.925 3.83478C219.812 4.8 218.504 6 216 6C213.496 6 212.188 4.8 211.13 3.83478C210.184 2.97391 209.489 2.34783 208.014 2.34783C206.511 2.34783 205.843 2.97391 204.897 3.83478C203.84 4.8 202.532 6 200.028 6C197.523 6 196.216 4.8 195.158 3.83478C194.212 2.97391 193.517 2.34783 192.042 2.34783C190.567 2.34783 189.871 2.97391 188.925 3.83478C187.84 4.8 186.504 6 184 6C181.496 6 180.188 4.8 179.13 3.83478C178.184 2.97391 177.489 2.34783 176.014 2.34783C174.511 2.34783 173.843 2.97391 172.897 3.83478C171.84 4.8 170.532 6 168.028 6C165.523 6 164.216 4.8 163.158 3.83478C162.212 2.97391 161.517 2.34783 160.042 2.34783C158.539 2.34783 157.871 2.97391 156.925 3.83478C155.868 4.8 154.56 6 152.056 6C149.551 6 148.243 4.8 147.186 3.83478C146.24 2.97391 145.544 2.34783 144.07 2.34783C142.595 2.34783 141.899 2.97391 140.953 3.83478C139.896 4.8 138.588 6 136.083 6C133.579 6 132.271 4.8 131.214 3.83478C130.268 2.97391 129.572 2.34783 128.097 2.34783C126.595 2.34783 125.927 2.97391 124.981 3.83478C123.923 4.8 122.616 6 120.111 6C117.607 6 116.299 4.8 115.242 3.83478C114.296 2.97391 113.6 2.34783 112.125 2.34783C110.623 2.34783 109.955 2.97391 109.009 3.83478C107.951 4.8 106.643 6 104.139 6C101.635 6 100.327 4.8 99.2696 3.83478C98.3235 2.97391 97.6278 2.34783 96.153 2.34783C94.6504 2.34783 93.9826 2.97391 93.0365 3.83478C91.9791 4.8 90.6713 6 88.167 6C85.6626 6 84.3548 4.8 83.2974 3.83478C82.3513 2.97391 81.6556 2.34783 80.1809 2.34783C78.7061 2.34783 78.0104 2.97391 77.0643 3.83478C76.007 4.8 74.6991 6 72.1948 6C69.6904 6 68.3826 4.8 67.3252 3.83478C66.3791 2.97391 65.6835 2.34783 64.2087 2.34783C62.7061 2.34783 62.0383 2.97391 61.0922 3.83478C60.0348 4.8 58.727 6 56.2226 6C53.7183 6 52.4104 4.8 51.353 3.83478C50.407 2.97391 49.7113 2.34783 48.2365 2.34783C46.7339 2.34783 46.0661 2.97391 45.12 3.83478C44.0626 4.8 42.7548 6 40.2504 6C37.7461 6 36.4383 4.8 35.3809 3.83478C34.4348 2.97391 33.7391 2.34783 32.2643 2.34783C30.7617 2.34783 30.0939 2.97391 29.1478 3.83478C27.84 4.8 26.5043 6 24 6C21.4957 6 20.1878 4.8 19.1304 3.83478C18.1843 2.97391 17.4887 2.34783 16.0139 2.34783C14.5113 2.34783 13.8435 2.97391 12.8974 3.83478C11.84 4.8 10.5322 6 8.02782 6C5.52348 6 4.21565 4.8 3.15826 3.83478C2.18435 2.97391 1.4887 2.34783 0.0139122 2.34783C-1.4887 2.34783 -2.15652 2.97391 -3.10261 3.83478C-4.18783 4.8 -5.49565 6 -8 6V3.65217C-6.49739 3.65217 -5.82957 3.02609 -4.88348 2.16522C-3.82609 1.2 -2.51826 0 0.0139122 0C2.51826 0 3.82609 1.2 4.88348 2.16522C5.82956 3.02609 6.52522 3.65217 8 3.65217C9.50261 3.65217 10.1704 3.02609 11.1165 2.16522C12.1739 1.2 13.5096 0 16.0139 0C18.5183 0 19.8261 1.2 20.8835 2.16522C21.8296 3.02609 22.5252 3.65217 24 3.65217C25.5026 3.65217 26.1704 3.02609 27.1165 2.16522C28.1739 1.2 29.4817 0 31.9861 0C34.4904 0 35.7983 1.2 36.8556 2.16522C37.8017 3.02609 38.4974 3.65217 39.9722 3.65217C41.4748 3.65217 42.1426 3.02609 43.0887 2.16522C44.1461 1.2 45.4539 0 47.9583 0C50.4626 0 51.7704 1.2 52.8278 2.16522C53.7739 3.02609 54.4696 3.65217 55.9443 3.65217C57.447 3.65217 58.1148 3.02609 59.0609 2.16522C60.1183 1.2 61.4261 0 63.9304 0C66.4348 0 67.7426 1.2 68.8 2.16522C69.7461 3.02609 70.4417 3.65217 71.9165 3.65217C73.4191 3.65217 74.087 3.02609 75.033 2.16522C76.0904 1.2 77.3983 0 79.9026 0C82.407 0 83.7148 1.2 84.7722 2.16522C85.7183 3.02609 86.4139 3.65217 87.8887 3.65217C89.3913 3.65217 90.0591 3.02609 91.0052 2.16522C92.0626 1.2 93.3704 0 95.8748 0C98.3791 0 99.687 1.2 100.744 2.16522C101.69 3.02609 102.386 3.65217 103.861 3.65217C105.336 3.65217 106.031 3.02609 106.977 2.16522C108.035 1.2 109.343 0 111.847 0C114.351 0 115.659 1.2 116.717 2.16522C117.663 3.02609 118.358 3.65217 119.833 3.65217C121.336 3.65217 122.003 3.02609 122.95 2.16522C124.007 1.2 125.315 0 127.819 0C130.323 0 131.631 1.2 132.689 2.16522C133.635 3.02609 134.33 3.65217 135.805 3.65217C137.308 3.65217 137.976 3.02609 138.922 2.16522C139.979 1.2 141.287 0 143.791 0C146.296 0 147.603 1.2 148.661 2.16522C149.607 3.02609 150.303 3.65217 151.777 3.65217C153.28 3.65217 153.948 3.02609 154.894 2.16522C155.951 1.2 157.259 0 159.763 0C162.268 0 163.576 1.2 164.633 2.16522C165.579 3.02609 166.275 3.65217 167.75 3.65217C169.252 3.65217 169.92 3.02609 170.866 2.16522C171.923 1.2 173.231 0 175.736 0C178.24 0 179.548 1.2 180.605 2.16522C181.551 3.02609 182.247 3.65217 183.722 3.65217C185.224 3.65217 185.892 3.02609 186.838 2.16522C187.896 1.2 189.203 0 191.708 0C194.212 0 195.52 1.2 196.577 2.16522C197.523 3.02609 198.219 3.65217 199.694 3.65217C201.197 3.65217 201.864 3.02609 202.81 2.16522C203.868 1.2 205.176 0 207.68 0C210.184 0 211.492 1.2 212.55 2.16522C213.496 3.02609 214.191 3.65217 215.666 3.65217C217.169 3.65217 217.837 3.02609 218.783 2.16522C220.174 1.2 221.482 0 224.014 0C226.518 0 227.826 1.2 228.883 2.16522C229.83 3.02609 230.525 3.65217 232 3.65217C233.475 3.65217 234.17 3.02609 235.117 2.16522C236.174 1.2 237.482 0 239.986 0C242.49 0 243.798 1.2 244.856 2.16522C245.802 3.02609 246.497 3.65217 247.972 3.65217C249.447 3.65217 250.143 3.02609 251.089 2.16522C252.174 1.2 253.482 0 256.014 0C258.546 0 259.826 1.2 260.883 2.16522C261.83 3.02609 262.525 3.65217 264 3.65217C265.475 3.65217 266.17 3.02609 267.117 2.16522C268.174 1.2 269.482 0 271.986 0C274.49 0 275.798 1.2 276.856 2.16522C277.802 3.02609 278.497 3.65217 279.972 3.65217C281.475 3.65217 282.143 3.02609 283.089 2.16522C284.146 1.2 285.454 0 287.958 0C290.463 0 291.77 1.2 292.828 2.16522C293.774 3.02609 294.47 3.65217 295.944 3.65217C297.419 3.65217 298.115 3.02609 299.061 2.16522C300.118 1.2 301.426 0 303.93 0C306.435 0 307.743 1.2 308.8 2.16522C309.746 3.02609 310.442 3.65217 311.917 3.65217V6H312Z" fill="#F1F1F1"/>
</g>
<defs>
<clipPath id="clip0_44_95">
<rect width="320" height="3932" fill="white" transform="translate(-8 -1388)"/>
</clipPath>
</defs>
</svg>
