<svg width="53" height="23" viewBox="0 0 53 23" fill="none" xmlns="http://www.w3.org/2000/svg">
<g clip-path="url(#clip0_1159_2)">
<rect x="-336" y="-1614" width="1250" height="3938" fill="white"/>
<path d="M814 23C805.783 23 801.491 18.4 798.022 14.7C794.917 11.4 792.635 9 787.796 9C782.865 9 780.674 11.4 777.57 14.7C774.1 18.4 769.809 23 761.591 23C753.374 23 749.083 18.4 745.613 14.7C742.509 11.4 740.226 9 735.387 9C730.548 9 728.265 11.4 725.161 14.7C721.691 18.4 717.4 23 709.183 23C700.965 23 696.674 18.4 693.204 14.7C690.1 11.4 687.817 9 682.978 9C678.048 9 675.857 11.4 672.752 14.7C669.283 18.4 664.991 23 656.774 23C648.557 23 644.265 18.4 640.796 14.7C637.691 11.4 635.409 9 630.57 9C625.639 9 623.448 11.4 620.344 14.7C616.509 18.4 612.217 23 604 23C595.783 23 591.491 18.4 588.022 14.7C584.917 11.4 582.635 9 577.796 9C572.865 9 570.674 11.4 567.57 14.7C564.1 18.4 559.809 23 551.591 23C543.374 23 539.083 18.4 535.613 14.7C532.509 11.4 530.226 9 525.387 9C520.457 9 518.265 11.4 515.161 14.7C511.509 18.4 507.217 23 499 23C490.783 23 486.491 18.4 483.022 14.7C479.917 11.4 477.635 9 472.796 9C467.865 9 465.674 11.4 462.57 14.7C459.1 18.4 454.809 23 446.591 23C438.374 23 434.083 18.4 430.613 14.7C427.509 11.4 425.226 9 420.387 9C415.548 9 413.265 11.4 410.161 14.7C406.6 18.4 402.217 23 394 23C385.783 23 381.491 18.4 378.022 14.7C374.917 11.4 372.635 9 367.796 9C362.865 9 360.674 11.4 357.57 14.7C354.1 18.4 349.809 23 341.591 23C333.374 23 329.083 18.4 325.613 14.7C322.509 11.4 320.226 9 315.387 9C310.457 9 308.265 11.4 305.161 14.7C301.691 18.4 297.4 23 289.183 23C280.965 23 276.674 18.4 273.204 14.7C270.1 11.4 267.817 9 262.978 9C258.139 9 255.857 11.4 252.752 14.7C249.283 18.4 244.991 23 236.774 23C228.557 23 224.265 18.4 220.796 14.7C217.691 11.4 215.409 9 210.57 9C205.639 9 203.448 11.4 200.343 14.7C196.874 18.4 192.583 23 184.365 23C176.148 23 171.857 18.4 168.387 14.7C165.283 11.4 163 9 158.161 9C153.23 9 151.039 11.4 147.935 14.7C144.465 18.4 140.174 23 131.957 23C123.739 23 119.448 18.4 115.978 14.7C112.874 11.4 110.591 9 105.752 9C100.822 9 98.6305 11.4 95.5261 14.7C92.0565 18.4 87.7652 23 79.5479 23C71.3304 23 67.0392 18.4 63.5696 14.7C60.4652 11.4 58.1826 9 53.3435 9C48.5043 9 46.2218 11.4 43.1174 14.7C39.6479 18.4 35.3565 23 27.1392 23C18.9218 23 14.6304 18.4 11.1609 14.7C8.05653 11.4 5.77393 9 0.934784 9C-3.99565 9 -6.18695 11.4 -9.29129 14.7C-12.7609 18.4 -17.0522 23 -25.2696 23C-33.487 23 -37.7783 18.4 -41.2478 14.7C-44.3522 11.4 -46.6348 9 -51.4739 9C-56.4043 9 -58.5957 11.4 -61.7 14.7C-65.1696 18.4 -69.4609 23 -77.6783 23C-85.8957 23 -90.187 18.4 -93.6565 14.7C-96.7609 11.4 -99.0435 9 -103.883 9C-108.813 9 -111.004 11.4 -114.109 14.7C-118.4 18.4 -122.783 23 -131 23C-139.217 23 -143.509 18.4 -146.978 14.7C-150.083 11.4 -152.365 9 -157.204 9C-162.135 9 -164.326 11.4 -167.43 14.7C-170.9 18.4 -175.191 23 -183.409 23C-191.626 23 -195.917 18.4 -199.387 14.7C-202.583 11.4 -204.865 9 -209.704 9C-214.635 9 -216.826 11.4 -219.93 14.7C-223.491 18.4 -227.783 23 -236 23V14C-231.07 14 -228.878 11.6 -225.774 8.3C-222.304 4.6 -218.013 0 -209.704 0C-201.487 0 -197.196 4.6 -193.726 8.3C-190.622 11.6 -188.339 14 -183.5 14C-178.57 14 -176.378 11.6 -173.274 8.3C-169.804 4.6 -165.422 0 -157.204 0C-148.987 0 -144.696 4.6 -141.226 8.3C-138.122 11.6 -135.839 14 -131 14C-126.07 14 -123.878 11.6 -120.774 8.3C-117.304 4.6 -113.013 0 -104.796 0C-96.5783 0 -92.287 4.6 -88.8174 8.3C-85.713 11.6 -83.4304 14 -78.5913 14C-73.6609 14 -71.4696 11.6 -68.3652 8.3C-64.8956 4.6 -60.6043 0 -52.3869 0C-44.1696 0 -39.8783 4.6 -36.4087 8.3C-33.3043 11.6 -31.0217 14 -26.1826 14C-21.2522 14 -19.0609 11.6 -15.9565 8.3C-12.487 4.6 -8.19565 0 0.0217438 0C8.23914 0 12.5304 4.6 16 8.3C19.1044 11.6 21.387 14 26.2261 14C31.1565 14 33.3478 11.6 36.4522 8.3C39.9218 4.6 44.213 0 52.4305 0C60.6478 0 64.9391 4.6 68.4087 8.3C71.513 11.6 73.7957 14 78.6348 14C83.5652 14 85.7565 11.6 88.8609 8.3C92.3304 4.6 96.6217 0 104.839 0C113.057 0 117.348 4.6 120.817 8.3C123.922 11.6 126.204 14 131.043 14C135.883 14 138.165 11.6 141.27 8.3C144.739 4.6 149.03 0 157.248 0C165.465 0 169.757 4.6 173.226 8.3C176.33 11.6 178.613 14 183.452 14C188.383 14 190.574 11.6 193.678 8.3C197.148 4.6 201.439 0 209.657 0C217.874 0 222.165 4.6 225.635 8.3C228.739 11.6 231.022 14 235.861 14C240.791 14 242.983 11.6 246.087 8.3C249.557 4.6 253.848 0 262.065 0C270.283 0 274.574 4.6 278.044 8.3C281.148 11.6 283.43 14 288.27 14C293.2 14 295.391 11.6 298.496 8.3C301.965 4.6 306.257 0 314.474 0C322.691 0 326.983 4.6 330.452 8.3C333.557 11.6 335.839 14 340.678 14C345.609 14 347.8 11.6 350.904 8.3C354.374 4.6 358.665 0 366.883 0C375.1 0 379.391 4.6 382.861 8.3C385.965 11.6 388.248 14 393.087 14C398.017 14 400.209 11.6 403.313 8.3C406.783 4.6 411.074 0 419.291 0C427.509 0 431.8 4.6 435.27 8.3C438.374 11.6 440.657 14 445.496 14C450.426 14 452.617 11.6 455.722 8.3C459.191 4.6 463.483 0 471.7 0C479.917 0 484.209 4.6 487.678 8.3C490.783 11.6 493.065 14 497.904 14C502.835 14 505.026 11.6 508.13 8.3C512.696 4.6 516.987 0 525.296 0C533.513 0 537.804 4.6 541.274 8.3C544.378 11.6 546.661 14 551.5 14C556.339 14 558.622 11.6 561.726 8.3C565.196 4.6 569.487 0 577.704 0C585.922 0 590.213 4.6 593.683 8.3C596.787 11.6 599.07 14 603.909 14C608.748 14 611.03 11.6 614.135 8.3C617.696 4.6 621.987 0 630.296 0C638.604 0 642.804 4.6 646.274 8.3C649.378 11.6 651.661 14 656.5 14C661.339 14 663.622 11.6 666.726 8.3C670.196 4.6 674.487 0 682.704 0C690.922 0 695.213 4.6 698.683 8.3C701.787 11.6 704.07 14 708.909 14C713.839 14 716.03 11.6 719.135 8.3C722.604 4.6 726.896 0 735.113 0C743.33 0 747.622 4.6 751.091 8.3C754.196 11.6 756.478 14 761.317 14C766.157 14 768.439 11.6 771.544 8.3C775.013 4.6 779.304 0 787.522 0C795.739 0 800.031 4.6 803.5 8.3C806.604 11.6 808.887 14 813.726 14V23H814Z" fill="#F1F1F1"/>
</g>
<defs>
<clipPath id="clip0_1159_2">
<rect width="1150" height="3623" fill="white" transform="translate(-286 -1614)"/>
</clipPath>
</defs>
</svg>
